<svg xmlns="http://www.w3.org/2000/svg" version="1.1" xmlns:xlink="http://www.w3.org/1999/xlink" xmlns:svgjs="http://svgjs.dev/svgjs" viewBox="0 0 800 800"><defs><linearGradient x1="50%" y1="0%" x2="50%" y2="100%" id="cccoil-grad"><stop stop-color="hsl(0, 0%, 0%)" stop-opacity="1" offset="0%"></stop><stop stop-color="hsl(230, 4%, 91%)" stop-opacity="1" offset="100%"></stop></linearGradient></defs><g stroke="url(#cccoil-grad)" fill="none" stroke-linecap="round"><circle r="330" cx="400" cy="400" stroke-width="9.5" stroke-dasharray="1762 2073" transform="rotate(360, 400, 400)" opacity="0.05"></circle><circle r="313.5" cx="400" cy="400" stroke-width="9.5" stroke-dasharray="1586 1970" transform="rotate(341, 400, 400)" opacity="0.10"></circle><circle r="297" cx="400" cy="400" stroke-width="9.5" stroke-dasharray="1419 1866" transform="rotate(322, 400, 400)" opacity="0.15"></circle><circle r="280.5" cx="400" cy="400" stroke-width="9.5" stroke-dasharray="1262 1762" transform="rotate(303, 400, 400)" opacity="0.20"></circle><circle r="264" cx="400" cy="400" stroke-width="9.5" stroke-dasharray="1113 1659" transform="rotate(284, 400, 400)" opacity="0.25"></circle><circle r="247.5" cx="400" cy="400" stroke-width="9.5" stroke-dasharray="974 1555" transform="rotate(265, 400, 400)" opacity="0.30"></circle><circle r="231" cx="400" cy="400" stroke-width="9.5" stroke-dasharray="844 1451" transform="rotate(246, 400, 400)" opacity="0.35"></circle><circle r="214.5" cx="400" cy="400" stroke-width="9.5" stroke-dasharray="724 1348" transform="rotate(227, 400, 400)" opacity="0.40"></circle><circle r="198" cx="400" cy="400" stroke-width="9.5" stroke-dasharray="612 1244" transform="rotate(208, 400, 400)" opacity="0.45"></circle><circle r="181.5" cx="400" cy="400" stroke-width="9.5" stroke-dasharray="510 1140" transform="rotate(189, 400, 400)" opacity="0.50"></circle><circle r="165" cx="400" cy="400" stroke-width="9.5" stroke-dasharray="417 1037" transform="rotate(171, 400, 400)" opacity="0.55"></circle><circle r="148.5" cx="400" cy="400" stroke-width="9.5" stroke-dasharray="334 933" transform="rotate(152, 400, 400)" opacity="0.60"></circle><circle r="132" cx="400" cy="400" stroke-width="9.5" stroke-dasharray="260 829" transform="rotate(133, 400, 400)" opacity="0.65"></circle><circle r="115.5" cx="400" cy="400" stroke-width="9.5" stroke-dasharray="195 726" transform="rotate(114, 400, 400)" opacity="0.70"></circle><circle r="99" cx="400" cy="400" stroke-width="9.5" stroke-dasharray="139 622" transform="rotate(95, 400, 400)" opacity="0.75"></circle><circle r="82.5" cx="400" cy="400" stroke-width="9.5" stroke-dasharray="93 518" transform="rotate(76, 400, 400)" opacity="0.80"></circle><circle r="66" cx="400" cy="400" stroke-width="9.5" stroke-dasharray="56 415" transform="rotate(57, 400, 400)" opacity="0.85"></circle><circle r="49.5" cx="400" cy="400" stroke-width="9.5" stroke-dasharray="28 311" transform="rotate(38, 400, 400)" opacity="0.90"></circle><circle r="33" cx="400" cy="400" stroke-width="9.5" stroke-dasharray="9 207" transform="rotate(19, 400, 400)" opacity="0.95"></circle><circle r="16.5" cx="400" cy="400" stroke-width="9.5" stroke-dasharray="0 104" opacity="1.00"></circle></g></svg>