<svg
  version="1.1"
  id="Layer_1"
  xmlns="http://www.w3.org/2000/svg"
  xmlns:xlink="http://www.w3.org/1999/xlink"
  viewBox="0 0 512 512"
  xml:space="preserve"
  width="200"
  height="200"
>
  <path
    style="fill:#264DE4;"
    d="M71.4,460.8L30,0h451.9l-41.4,460.7L256.1,512L71.4,460.8z"
  />
  <path
    style="fill:#2965F1;"
    d="M256,472.3l149.6-41.3l35.4-395.6H256V472.3z"
  />
  <path
    style="fill:#EBEBEB;"
    d="M256,208.8H167.7l-3.6-40.6H256V128H118.2l0.9,10.1l13.8,154.8H256v-44.2h-84.5l-5.7-63.9H256V208.8z
     M256,383.1l-0.2,0.1l-71.3-19.3l-4.6-51.4h-40.6l9,100.7l107.3,29.8l0.3-0.1V383.1z"
  />
  <path
    style="fill:#FFFFFF;"
    d="M256,208.8v40.6h79.1l-7.4,82.8L256,383.1v48.6l107.3-29.8l1-11.2l12.3-137.8l1.3-14.5l0.9-10.1H256z
     M256,128v40.2h123.1l0.9-10.1l1.8-20.1l0.9-10.1H256z"
  />
</svg>
