<svg xmlns="http://www.w3.org/2000/svg" viewBox="0 0 630 630">
  <rect width="630" height="630" fill="#f7df1e"/>
  <path d="M423.3 492.19c8.61 14.06 19.78 24.41 39.56 24.41 16.63 0 27.22-8.31 27.22-19.78 0-13.75-10.94-18.63-29.3-26.63l-10.06-4.32c-29.06-12.42-48.38-28.06-48.38-61.06 0-30.38 23.19-53.56 59.44-53.56 25.81 0 44.44 8.94 57.75 32.31l-31.63 20.31c-6.94-12.42-14.44-17.31-26.13-17.31-11.88 0-19.38 7.5-19.38 17.31 0 12.13 7.5 16.94 24.81 24.31l10.06 4.31c34.31 14.69 53.63 29.81 53.63 62.94 0 35.94-28.25 55.81-66.31 55.81-37.19 0-61.19-17.75-72.94-41.06zm-138.75 3.75c4.69 8.31 8.94 15.31 19.38 15.31 9.94 0 16.25-3.88 16.25-19.06V317.5h34.31v174.69c0 35.56-20.75 51.81-51 51.81-27.31 0-43.19-14.06-51.19-30.94z"/>
</svg>
