<svg version="1.1" id="Layer_1" xmlns="http://www.w3.org/2000/svg" xmlns:xlink="http://www.w3.org/1999/xlink" viewBox="0 0 256 255" xml:space="preserve">
  <g>
    <path style="fill:#306998;" d="M126.916,0.002c-11.042,0.049-21.771,0.97-30.916,2.583c-27.379,4.819-32.571,14.611-32.571,32.583
      v21.5h65.143v8.583H61.145c-18.271,0-33.611,10.792-38.857,32.583c-5.246,21.792-5.429,35.611,0,57.5
      c4.521,19.146,13.271,32.583,30.857,32.583h21.5c18.271,0,24.271-8.271,24.271-18.583v-21.5c0-12.271,10.896-23.083,24.271-23.083
      h32.571c11.896,0,21.5-9.896,21.5-21.5V35.168c0-16.896-14.896-30.146-32.571-32.583C147.771,0.385,137.958-0.047,126.916,0.002z
       M115.916,13.002c6.627,0,12,5.373,12,12s-5.373,12-12,12s-12-5.373-12-12S109.289,13.002,115.916,13.002z"/>
    <path style="fill:#FFD43B;" d="M128.002,255.002c11.042-0.049,21.771-0.97,30.916-2.583c27.379-4.819,32.571-14.611,32.571-32.583
      v-21.5h-65.143v-8.583h67.427c18.271,0,33.611-10.792,38.857-32.583c5.246-21.792,5.429-35.611,0-57.5
      c-4.521-19.146-13.271-32.583-30.857-32.583h-21.5c-18.271,0-24.271,8.271-24.271,18.583v21.5c0,12.271-10.896,23.083-24.271,23.083
      h-32.571c-11.896,0-21.5,9.896-21.5,21.5v78.5c0,16.896,14.896,30.146,32.571,32.583C106.147,254.619,115.96,255.051,128.002,255.002z
       M140.002,242.002c-6.627,0-12-5.373-12-12s5.373-12,12-12s12,5.373,12,12S146.629,242.002,140.002,242.002z"/>
  </g>
</svg>
