<svg height="100" width="100" viewBox="0 0 841.9 595.3" xmlns="http://www.w3.org/2000/svg">
  <circle cx="420.9" cy="296.5" r="45.7" fill="#61DAFB"/>
  <path fill="none" stroke="#61DAFB" stroke-width="30" d="M520.5 78.1c-5.2-9-15.4-14.3-26.4-13.1-11.1 1.2-20.1 8.3-24.3 18.5-1.5 3.5-3.9 8.9-7.1 15.9-15.7 33.1-40.5 78.1-69.6 123.7-29.1-45.6-53.9-90.6-69.6-123.7-3.2-7-5.6-12.4-7.1-15.9-4.2-10.2-13.2-17.3-24.3-18.5-11.1-1.2-21.3 4.1-26.4 13.1-5.2 9-3.9 20.3 3.3 28.3 2.8 3.1 7.2 7.8 12.8 13.9 21.5 23.1 52.1 55.4 89.4 93.5-37.3 38.1-67.9 70.4-89.4 93.5-5.6 6.1-10 10.8-12.8 13.9-7.2 8-8.5 19.3-3.3 28.3 5.2 9 15.4 14.3 26.4 13.1 11.1-1.2 20.1-8.3 24.3-18.5 1.5-3.5 3.9-8.9 7.1-15.9 15.7-33.1 40.5-78.1 69.6-123.7 29.1 45.6 53.9 90.6 69.6 123.7 3.2 7 5.6 12.4 7.1 15.9 4.2 10.2 13.2 17.3 24.3 18.5 11.1 1.2 21.3-4.1 26.4-13.1 5.2-9 3.9-20.3-3.3-28.3-2.8-3.1-7.2-7.8-12.8-13.9-21.5-23.1-52.1-55.4-89.4-93.5 37.3-38.1 67.9-70.4 89.4-93.5 5.6-6.1 10-10.8 12.8-13.9 7.2-8 8.5-19.3 3.3-28.3z"/>
</svg>
